<svg id="Grupo_260" data-name="Grupo 260" xmlns="http://www.w3.org/2000/svg" xmlns:xlink="http://www.w3.org/1999/xlink" width="197.652" height="40.816" viewBox="0 0 197.652 40.816">
  <defs>
    <linearGradient id="linear-gradient" y1="0.5" x2="1" y2="0.5" gradientUnits="objectBoundingBox">
      <stop offset="0" stop-color="#97c34e"/>
      <stop offset="1" stop-color="#0a6c3a"/>
    </linearGradient>
  </defs>
  <path id="Trazado_2394" data-name="Trazado 2394" d="M1178.259,52.077h0l-7.151,12.385,7.151,12.385h0l7.151-12.385Z" transform="translate(-998.948 -51.192)" fill="#97c34e"/>
  <path id="Trazado_2395" data-name="Trazado 2395" d="M1175.485,52.289H1159.79l-7.115,12.323,7.115,12.323h15.694l-7.115-12.323Z" transform="translate(-996.154 -51.224)" fill="#009845"/>
  <path id="Trazado_2396" data-name="Trazado 2396" d="M1152.676,66.813l7.115,12.323h15.694l-7.115-12.323Z" transform="translate(-996.154 -53.425)" fill="#046939"/>
  <path id="Trazado_2397" data-name="Trazado 2397" d="M1183.3,77.085h8.009l7.136-12.359-7.136-12.359H1183.3l7.135,12.359Z" transform="translate(-1000.796 -51.236)" fill="#97c34e"/>
  <path id="Trazado_2398" data-name="Trazado 2398" d="M985.818,51.809V57.66H974.962V61.4H984.9v5.287h-9.939V70.56h10.856v5.922H968.194V51.809Zm19.174,14.98h7.225q-1.127,5.075-6.679,8.494a12.713,12.713,0,0,1-6.2,1.551,13.378,13.378,0,0,1-10.362-5,12.5,12.5,0,0,1-2.82-7.895q0-6.786,6.063-10.856a13.5,13.5,0,0,1,7.26-2.045,13.841,13.841,0,0,1,9.658,4.089,13.081,13.081,0,0,1,3.208,6.38h-7.084a6.768,6.768,0,0,0-3.243-3.63,6.205,6.205,0,0,0-2.75-.635,5.876,5.876,0,0,0-5.5,3.594,6.655,6.655,0,0,0-.634,3.031v.071a6.565,6.565,0,0,0,2.96,5.568,5.626,5.626,0,0,0,3.031.917h.564Q1003.211,70.42,1004.992,66.79Zm20.972,10.045a12.906,12.906,0,0,1-9.349-3.771,12.621,12.621,0,0,1,0-18.187,13.474,13.474,0,0,1,18.7,0,12.623,12.623,0,0,1,0,18.187A12.9,12.9,0,0,1,1025.964,76.834Zm-6.239-12.971v.071a6.564,6.564,0,0,0,2.961,5.568,5.626,5.626,0,0,0,3.031.917h.564q3.86,0,5.64-4.37A8.851,8.851,0,0,0,1032.2,64v-.353a6.382,6.382,0,0,0-3.595-5.78,6.2,6.2,0,0,0-2.75-.635,5.875,5.875,0,0,0-5.5,3.594A6.656,6.656,0,0,0,1019.725,63.863Zm32.127-12.054q6.045,0,8.177,3.524a7.849,7.849,0,0,1,1.621,5v.423q0,6.151-6.7,8.177a18.04,18.04,0,0,1-4.018.423h-3.63v7.119h-6.838V51.809Zm-4.547,5.78v5.922h3.208q3.313,0,3.806-.775a3.466,3.466,0,0,0,.564-1.9q0-3.241-4.159-3.243Zm19.509,15.368-1.3,3.525h-7.472l9.869-24.673h6.345l9.869,24.673h-7.472l-1.251-3.525Zm6.714-5.287-2.326-6.555-2.432,6.555Zm18.223,1.693h-.529v7.119h-6.839V51.809h11.385q6.045,0,8.177,3.524a7.855,7.855,0,0,1,1.621,5v.423q0,5.992-6.363,8.071,5.075,6.521,6.856,7.649h-8.283Q1096.07,75.389,1091.752,69.363Zm-.529-11.774v5.922h3.207q3.314,0,3.807-.775a3.465,3.465,0,0,0,.563-1.9q0-3.241-4.159-3.243Zm37.687-5.656H1120.9l-7.136,12.359,7.136,12.359h8.008l-7.135-12.359Zm-14.771.048h-7.146V76.746h7.146Z" transform="translate(-968.194 -51.034)" fill="url(#linear-gradient)"/>
  <g id="Grupo_259" data-name="Grupo 259" transform="translate(71.114 27.791)">
    <path id="Trazado_2399" data-name="Trazado 2399" d="M1064.559,87.161l-2.494,1.694a3.642,3.642,0,0,0-3.275-2.057,3.5,3.5,0,0,0,0,7.007,3.642,3.642,0,0,0,3.275-2.057l2.494,1.694a6.328,6.328,0,0,1-5.77,3.371,6.518,6.518,0,1,1,.02-13.024A6.319,6.319,0,0,1,1064.559,87.161Z" transform="translate(-1052.011 -83.79)" fill="#046939"/>
    <path id="Trazado_2400" data-name="Trazado 2400" d="M1089.389,87.011h-5.446v1.733h3.884v2.742h-3.884v2.19h5.674v2.951h-8.949V84.06h8.721Z" transform="translate(-1056.354 -83.831)" fill="#046939"/>
    <path id="Trazado_2401" data-name="Trazado 2401" d="M1116.425,84.019v12.8h-1.048l-6.817-6.608v6.379h-3.275V83.79h1.047l6.817,6.512V84.019Z" transform="translate(-1060.085 -83.79)" fill="#046939"/>
    <path id="Trazado_2402" data-name="Trazado 2402" d="M1142.6,87.011h-3.771v9.615h-3.275V87.011h-3.77V84.06H1142.6Z" transform="translate(-1064.102 -83.831)" fill="#046939"/>
    <path id="Trazado_2403" data-name="Trazado 2403" d="M1166.631,87.011h-5.446v1.733h3.884v2.742h-3.884v2.19h5.674v2.951h-8.949V84.06h8.721Z" transform="translate(-1068.061 -83.831)" fill="#046939"/>
    <path id="Trazado_2404" data-name="Trazado 2404" d="M1189.992,96.626l-2.837-3.9H1185.8v3.9h-3.275V84.06h4.932c2.761,0,4.855,1.656,4.855,4.322a4.065,4.065,0,0,1-1.98,3.58l3.313,4.665Zm-4.189-6.76h1.676a1.476,1.476,0,1,0,0-2.951H1185.8Z" transform="translate(-1071.792 -83.831)" fill="#046939"/>
  </g>
</svg>
